<svg xmlns="http://www.w3.org/2000/svg" width="512" height="512" viewBox="0 0 512 512" role="img" aria-label="Elfmeter Icon">
  <defs>
    <linearGradient id="sky" x1="0" y1="0" x2="0" y2="1">
      <stop offset="0" stop-color="#173a75"/>
      <stop offset=".58" stop-color="#0d1f3c"/>
      <stop offset="1" stop-color="#07111f"/>
    </linearGradient>
    <linearGradient id="grass" x1="0" y1="0" x2="0" y2="1">
      <stop offset="0" stop-color="#28b463"/>
      <stop offset="1" stop-color="#0b7a3b"/>
    </linearGradient>
    <filter id="shadow" x="-20%" y="-20%" width="140%" height="140%">
      <feDropShadow dx="0" dy="10" stdDeviation="10" flood-color="#020817" flood-opacity=".35"/>
    </filter>
  </defs>

  <rect width="512" height="512" rx="96" fill="url(#sky)"/>
  <path d="M0 306c73-25 141-38 203-38 108 0 189 38 309 29v215H0Z" fill="url(#grass)"/>
  <path d="M68 420c92-33 213-45 376-23" fill="none" stroke="#ffffff" stroke-width="11" stroke-linecap="round" opacity=".9"/>
  <path d="M256 300v82" fill="none" stroke="#ffffff" stroke-width="8" stroke-linecap="round" opacity=".75"/>
  <circle cx="256" cy="384" r="8" fill="#ffffff" opacity=".9"/>

  <g filter="url(#shadow)">
    <path d="M112 132h288v159H112Z" fill="#ffffff" opacity=".14"/>
    <path d="M112 132h288v159" fill="none" stroke="#ffffff" stroke-width="22" stroke-linecap="round" stroke-linejoin="round"/>
    <path d="M112 291h288" fill="none" stroke="#ffffff" stroke-width="18" stroke-linecap="round"/>
    <path d="M150 146v131M198 146v131M246 146v131M294 146v131M342 146v131M112 180h288M112 222h288M112 264h288" fill="none" stroke="#b8d7ff" stroke-width="5" opacity=".7"/>
  </g>

  <g filter="url(#shadow)">
    <circle cx="256" cy="312" r="53" fill="#f8fafc"/>
    <path d="M256 270l35 25-13 41h-44l-13-41Z" fill="#111827"/>
    <path d="M221 295l-28-11M291 295l28-11M234 336l-19 26M278 336l19 26M256 270v-31" stroke="#111827" stroke-width="9" stroke-linecap="round" fill="none"/>
    <circle cx="256" cy="312" r="53" fill="none" stroke="#111827" stroke-width="8"/>
  </g>

  <text x="256" y="454" text-anchor="middle" font-family="Arial, Helvetica, sans-serif" font-size="64" font-weight="800" fill="#ffd54a" stroke="#07111f" stroke-width="5" paint-order="stroke">11m</text>
</svg>
